<svg xmlns="http://www.w3.org/2000/svg" xmlns:xlink="http://www.w3.org/1999/xlink" id="body_4" preserveAspectRatio="xMinYMin meet" viewBox="0 0 793 1121"><defs><clipPath id="1"><path id="" clip-rule="evenodd" d="M0 841L0 -0.9000244L0 -0.9000244L595.3 -0.9000244L595.3 -0.9000244L595.3 841L595.3 841L0 841z" /></clipPath><clipPath id="2"><path id="" clip-rule="evenodd" d="M83.63311 82.22491L501.7812 82.22491L501.7812 82.22491L501.7812 130.573L501.7812 130.573L83.63311 130.573z" /></clipPath><clipPath id="3"><path id="" clip-rule="evenodd" d="M88.46346 378.7553L506.8508 378.7553L506.8508 378.7553L506.8508 424.8927L506.8508 424.8927L88.46346 424.8927z" /></clipPath></defs><g transform="matrix(1.333333 0 0 1.333333 0 0)"><g clip-path="url(#1)"><g transform="matrix(0.3273776 0 0 0.3278364 118.475 141.2761)"><g transform="matrix(1 0 0 1 0 0)"><image x="0" y="0" xlink:href="img_13.png" width="1125" height="440" /></g></g><path id="106" transform="matrix(1 0 0 -1 0 841)" d="M118.35 699.7239L118.35 555.476" stroke="#7F7F7F" stroke-width="0.25" fill="none" /><path id="107" transform="matrix(1 0 0 -1 0 841)" d="M486.8998 699.7239L486.8998 555.476" stroke="#7F7F7F" stroke-width="0.25" fill="none" /><path id="108" transform="matrix(1 0 0 -1 0 841)" d="M118.225 699.8489L487.0248 699.8489" stroke="#7F7F7F" stroke-width="0.25" fill="none" /><path id="109" transform="matrix(1 0 0 -1 0 841)" d="M118.225 555.351L487.0248 555.351" stroke="#7F7F7F" stroke-width="0.25" fill="none" /><g transform="matrix(0.3273088 0 0 0.327937 118.514 434.865)"><g transform="matrix(1 0 0 1 0 0)"><image x="0" y="0" xlink:href="img_14.png" width="1125" height="432" /></g></g><path id="215" transform="matrix(1 0 0 -1 0 841)" d="M118.389 406.135L118.389 264.4662" stroke="#7F7F7F" stroke-width="0.25" fill="none" /><path id="216" transform="matrix(1 0 0 -1 0 841)" d="M486.8615 406.135L486.8615 264.4662" stroke="#7F7F7F" stroke-width="0.25" fill="none" /><path id="217" transform="matrix(1 0 0 -1 0 841)" d="M118.264 406.26L486.9865 406.26" stroke="#7F7F7F" stroke-width="0.25" fill="none" /><path id="218" transform="matrix(1 0 0 -1 0 841)" d="M118.264 264.3412L486.9865 264.3412" stroke="#7F7F7F" stroke-width="0.25" fill="none" /><g transform="matrix(0.327309 0 0 0.3276 118.35 651.528)"><g transform="matrix(1 0 0 1 0 0)"><image x="0" y="0" xlink:href="img_15.png" width="1126" height="440" /></g></g><path id="285" transform="matrix(1 0 0 -1 0 841)" d="M118.225 189.472L118.225 45.32802" stroke="#7F7F7F" stroke-width="0.25" fill="none" /><path id="286" transform="matrix(1 0 0 -1 0 841)" d="M487.025 189.472L487.025 45.32802" stroke="#7F7F7F" stroke-width="0.25" fill="none" /><path id="287" transform="matrix(1 0 0 -1 0 841)" d="M118.1 189.597L487.15 189.597" stroke="#7F7F7F" stroke-width="0.25" fill="none" /><path id="288" transform="matrix(1 0 0 -1 0 841)" d="M118.1 45.20302L487.15 45.20302" stroke="#7F7F7F" stroke-width="0.25" fill="none" /><path id="304" transform="matrix(1 0 0 -1 0 841)" d="M86.8 754.8334C 86.8 755.3265 86.83601 755.819 86.90776 756.3069C 87.63453 761.2495 91.9146 764.95 96.90436 764.95L96.90436 764.95L488.4956 764.95C 493.4854 764.95 497.7654 761.2495 498.4922 756.3069C 498.564 755.819 498.6 755.3265 498.6 754.8334L498.6 754.8334L498.6 714.3667C 498.6 713.8735 498.564 713.381 498.4922 712.8932C 497.7654 707.9506 493.4854 704.25 488.4956 704.25L488.4956 704.25L96.90436 704.25C 91.9146 704.25 87.63453 707.9506 86.90776 712.8932C 86.83601 713.381 86.8 713.8735 86.8 714.3667z" stroke="#FF0000" stroke-width="0.75" fill="none" /><g clip-path="url(#2)"></g><path id="364" transform="matrix(1 0 0 -1 0 841)" d="M91.75 458.5917C 91.75 459.0464 91.78194 459.5006 91.84557 459.9508C 92.51932 464.7182 96.64134 468.3 101.454 468.3L101.454 468.3L493.846 468.3C 498.6586 468.3 502.7807 464.7182 503.4544 459.9508C 503.5181 459.5006 503.55 459.0464 503.55 458.5917L503.55 458.5917L503.55 419.7584C 503.55 419.3036 503.5181 418.8495 503.4544 418.3992C 502.7807 413.6318 498.6586 410.05 493.846 410.05L493.846 410.05L101.454 410.05C 96.64134 410.05 92.51932 413.6318 91.84557 418.3992C 91.78194 418.8495 91.75 419.3036 91.75 419.7584z" stroke="#FF0000" stroke-width="0.75" fill="none" /><g clip-path="url(#3)"></g></g></g></svg>