<svg xmlns="http://www.w3.org/2000/svg" xmlns:xlink="http://www.w3.org/1999/xlink" id="body_6" preserveAspectRatio="xMinYMin meet" viewBox="0 0 793 1121"><defs><clipPath id="1"><path id="" clip-rule="evenodd" d="M0 841L0 -0.9000244L0 -0.9000244L595.3 -0.9000244L595.3 -0.9000244L595.3 841L595.3 841L0 841z" /></clipPath><clipPath id="2"><path id="" clip-rule="evenodd" d="M98.97224 360.7746L499.3314 360.7746L499.3314 360.7746L499.3314 449.6219L499.3314 449.6219L98.97224 449.6219z" /></clipPath></defs><g transform="matrix(1.333333 0 0 1.333333 0 0)"><g clip-path="url(#1)"><g transform="matrix(0.750852 0 0 0.75075 118.291 37.80603)"><g transform="matrix(1 0 0 1 0 0)"><image x="0" y="0" xlink:href="img_22.png" width="491" height="183" /></g></g><path id="55" transform="matrix(1 0 0 -1 0 841)" d="M117.916 803.194L117.916 665.8067" stroke="#7F7F7F" stroke-width="0.75" fill="none" /><path id="56" transform="matrix(1 0 0 -1 0 841)" d="M487.3343 803.194L487.3343 665.8067" stroke="#7F7F7F" stroke-width="0.75" fill="none" /><path id="57" transform="matrix(1 0 0 -1 0 841)" d="M117.541 803.569L487.7093 803.569" stroke="#7F7F7F" stroke-width="0.75" fill="none" /><path id="58" transform="matrix(1 0 0 -1 0 841)" d="M117.541 665.4317L487.7093 665.4317" stroke="#7F7F7F" stroke-width="0.75" fill="none" /><g transform="matrix(0.7696071 0 0 0.7695 118.304 221.894)"><g transform="matrix(1 0 0 1 0 0)"><image x="0" y="0" xlink:href="img_23.png" width="479" height="157" /></g></g><path id="123" transform="matrix(1 0 0 -1 0 841)" d="M117.929 619.106L117.929 498.2944" stroke="#7F7F7F" stroke-width="0.75" fill="none" /><path id="124" transform="matrix(1 0 0 -1 0 841)" d="M487.3208 619.106L487.3208 498.2944" stroke="#7F7F7F" stroke-width="0.75" fill="none" /><path id="125" transform="matrix(1 0 0 -1 0 841)" d="M117.554 619.481L487.6958 619.481" stroke="#7F7F7F" stroke-width="0.75" fill="none" /><path id="126" transform="matrix(1 0 0 -1 0 841)" d="M117.554 497.9194L487.6958 497.9194" stroke="#7F7F7F" stroke-width="0.75" fill="none" /><g transform="matrix(0.4826876 0 0 0.4828149 118.479 474.046)"><g transform="matrix(1 0 0 1 0 0)"><image x="0" y="0" xlink:href="img_24.png" width="763" height="308" /></g></g><path id="128" transform="matrix(1 0 0 -1 0 841)" d="M118.104 366.954L118.104 218.247" stroke="#7F7F7F" stroke-width="0.75" fill="none" /><path id="129" transform="matrix(1 0 0 -1 0 841)" d="M487.1446 366.954L487.1446 218.247" stroke="#7F7F7F" stroke-width="0.75" fill="none" /><path id="130" transform="matrix(1 0 0 -1 0 841)" d="M117.729 367.329L487.5196 367.329" stroke="#7F7F7F" stroke-width="0.75" fill="none" /><path id="131" transform="matrix(1 0 0 -1 0 841)" d="M117.729 217.872L487.5196 217.872" stroke="#7F7F7F" stroke-width="0.75" fill="none" /><g transform="matrix(0.7501012 0 0 0.75 117.375 677.55)"><g transform="matrix(1 0 0 1 0 0)"><image x="0" y="0" xlink:href="img_25.png" width="494" height="166" /></g></g><path id="180" transform="matrix(1 0 0 -1 0 841)" d="M117 163.45L117 38.95003" stroke="#7F7F7F" stroke-width="0.75" fill="none" /><path id="181" transform="matrix(1 0 0 -1 0 841)" d="M488.3 163.45L488.3 38.95003" stroke="#7F7F7F" stroke-width="0.75" fill="none" /><path id="182" transform="matrix(1 0 0 -1 0 841)" d="M116.625 163.825L488.675 163.825" stroke="#7F7F7F" stroke-width="0.75" fill="none" /><path id="183" transform="matrix(1 0 0 -1 0 841)" d="M116.625 38.57503L488.675 38.57503" stroke="#7F7F7F" stroke-width="0.75" fill="none" /><path id="184" transform="matrix(1 0 0 -1 0 841)" d="M119.525 487.3C 116.1116 487.3 112.8346 485.9426 110.421 483.529C 108.0074 481.1154 106.65 477.8384 106.65 474.425L106.65 474.425L106.65 397.175C 106.65 393.7617 108.0074 390.4846 110.421 388.071C 112.8346 385.6574 116.1116 384.3 119.525 384.3L119.525 384.3L478.775 384.3C 482.1884 384.3 485.4654 385.6574 487.879 388.071C 490.2926 390.4846 491.65 393.7617 491.65 397.175L491.65 397.175L491.65 474.425C 491.65 477.8384 490.2926 481.1154 487.879 483.529C 485.4654 485.9426 482.1884 487.3 478.775 487.3z" stroke="#FF0000" stroke-width="0.75" fill="none" /><g clip-path="url(#2)"></g></g></g></svg>