<svg xmlns="http://www.w3.org/2000/svg" xmlns:xlink="http://www.w3.org/1999/xlink" id="body_2" preserveAspectRatio="xMinYMin meet" viewBox="0 0 793 1121"><defs><clipPath id="1"><path id="" clip-rule="evenodd" d="M0 841L0 -0.9000244L0 -0.9000244L595.3 -0.9000244L595.3 -0.9000244L595.3 841L595.3 841L0 841z" /></clipPath></defs><g transform="matrix(1.333333 0 0 1.333333 0 0)"><g clip-path="url(#1)"><g transform="matrix(0.6239311 0 0 0.6255521 224.583 1.311035)"><g transform="matrix(1 0 0 1 0 0)"><image x="0" y="0" xlink:href="img_04.png" width="250" height="367" /></g></g><path id="2" transform="matrix(1 0 0 -1 0 841)" d="M224.208 839.689L224.208 610.1113" stroke="#7F7F7F" stroke-width="0.75" fill="none" /><path id="3" transform="matrix(1 0 0 -1 0 841)" d="M380.9407 839.689L380.9407 610.1113" stroke="#7F7F7F" stroke-width="0.75" fill="none" /><path id="4" transform="matrix(1 0 0 -1 0 841)" d="M223.833 840.064L381.3157 840.064" stroke="#7F7F7F" stroke-width="0.75" fill="none" /><path id="5" transform="matrix(1 0 0 -1 0 841)" d="M223.833 609.7363L381.3157 609.7363" stroke="#7F7F7F" stroke-width="0.75" fill="none" /><g transform="matrix(0.3431675 0 0 0.3427002 199.813 259.399)"><g transform="matrix(1 0 0 1 0 0)"><image x="0" y="0" xlink:href="img_05.png" width="661" height="719" /></g></g><path id="47" transform="matrix(1 0 0 -1 0 841)" d="M199.438 581.601L199.438 335.1996" stroke="#7F7F7F" stroke-width="0.75" fill="none" /><path id="48" transform="matrix(1 0 0 -1 0 841)" d="M427.0217 581.601L427.0217 335.1996" stroke="#7F7F7F" stroke-width="0.75" fill="none" /><path id="49" transform="matrix(1 0 0 -1 0 841)" d="M199.063 581.976L427.3967 581.976" stroke="#7F7F7F" stroke-width="0.75" fill="none" /><path id="50" transform="matrix(1 0 0 -1 0 841)" d="M199.063 334.8246L427.3967 334.8246" stroke="#7F7F7F" stroke-width="0.75" fill="none" /><g transform="matrix(0.5376651 0 0 0.5369287 199.732 556.231)"><g transform="matrix(1 0 0 1 0 0)"><image x="0" y="0" xlink:href="img_06.png" width="422" height="502" /></g></g></g></g></svg>