<svg xmlns="http://www.w3.org/2000/svg" xmlns:xlink="http://www.w3.org/1999/xlink" id="body_3" preserveAspectRatio="xMinYMin meet" viewBox="0 0 793 1121"><defs><clipPath id="1"><path id="" clip-rule="evenodd" d="M0 841L0 -0.9000244L0 -0.9000244L595.3 -0.9000244L595.3 -0.9000244L595.3 841L595.3 841L0 841z" /></clipPath><clipPath id="2"><path id="" clip-rule="evenodd" d="M87.81474 386.3065L506.0995 386.3065L506.0995 386.3065L506.0995 433.3914L506.0995 433.3914L87.81474 433.3914z" /></clipPath></defs><g transform="matrix(1.333333 0 0 1.333333 0 0)"><g clip-path="url(#1)"><g transform="matrix(0.3275235 0 0 0.3276812 139.682 202.2491)"><g transform="matrix(1 0 0 1 0 0)"><image x="0" y="0" xlink:href="img_08.png" width="995" height="336" /></g></g><path id="322" transform="matrix(1 0 0 -1 0 841)" d="M139.307 638.751L139.307 528.6501" stroke="#7F7F7F" stroke-width="0.75" fill="none" /><path id="323" transform="matrix(1 0 0 -1 0 841)" d="M465.9429 638.751L465.9429 528.6501" stroke="#7F7F7F" stroke-width="0.75" fill="none" /><path id="324" transform="matrix(1 0 0 -1 0 841)" d="M138.932 639.126L466.3179 639.126" stroke="#7F7F7F" stroke-width="0.75" fill="none" /><path id="325" transform="matrix(1 0 0 -1 0 841)" d="M138.932 528.2751L466.3179 528.2751" stroke="#7F7F7F" stroke-width="0.75" fill="none" /><g transform="matrix(0.3273772 0 0 0.3279294 139.427 444.939)"><g transform="matrix(1 0 0 1 0 0)"><image x="0" y="0" xlink:href="img_09.png" width="997" height="323" /></g></g><path id="452" transform="matrix(1 0 0 -1 0 841)" d="M139.302 396.061L139.302 290.1398" stroke="#7F7F7F" stroke-width="0.25" fill="none" /><path id="453" transform="matrix(1 0 0 -1 0 841)" d="M465.947 396.061L465.947 290.1398" stroke="#7F7F7F" stroke-width="0.25" fill="none" /><path id="454" transform="matrix(1 0 0 -1 0 841)" d="M139.177 396.186L466.072 396.186" stroke="#7F7F7F" stroke-width="0.25" fill="none" /><path id="455" transform="matrix(1 0 0 -1 0 841)" d="M139.177 290.0148L466.072 290.0148" stroke="#7F7F7F" stroke-width="0.25" fill="none" /><g transform="matrix(0.3274824 0 0 0.3277 139.702 569.121)"><g transform="matrix(1 0 0 1 0 0)"><image x="0" y="0" xlink:href="img_10.png" width="995" height="327" /></g></g><path id="478" transform="matrix(1 0 0 -1 0 841)" d="M139.577 271.879L139.577 164.7211" stroke="#7F7F7F" stroke-width="0.25" fill="none" /><path id="479" transform="matrix(1 0 0 -1 0 841)" d="M465.672 271.879L465.672 164.7211" stroke="#7F7F7F" stroke-width="0.25" fill="none" /><path id="480" transform="matrix(1 0 0 -1 0 841)" d="M139.452 272.004L465.797 272.004" stroke="#7F7F7F" stroke-width="0.25" fill="none" /><path id="481" transform="matrix(1 0 0 -1 0 841)" d="M139.452 164.5961L465.797 164.5961" stroke="#7F7F7F" stroke-width="0.25" fill="none" /><g transform="matrix(0.3273406 0 0 0.3274303 139.445 696.748)"><g transform="matrix(1 0 0 1 0 0)"><image x="0" y="0" xlink:href="img_11.png" width="997" height="310" /></g></g><path id="504" transform="matrix(1 0 0 -1 0 841)" d="M139.32 144.252L139.32 42.74863" stroke="#7F7F7F" stroke-width="0.25" fill="none" /><path id="505" transform="matrix(1 0 0 -1 0 841)" d="M465.9286 144.252L465.9286 42.74863" stroke="#7F7F7F" stroke-width="0.25" fill="none" /><path id="506" transform="matrix(1 0 0 -1 0 841)" d="M139.195 144.377L466.0536 144.377" stroke="#7F7F7F" stroke-width="0.25" fill="none" /><path id="507" transform="matrix(1 0 0 -1 0 841)" d="M139.195 42.62363L466.0536 42.62363" stroke="#7F7F7F" stroke-width="0.25" fill="none" /><path id="537" transform="matrix(1 0 0 -1 0 841)" d="M91.05 450.9167C 91.05 451.3877 91.08365 451.8581 91.15067 452.3243C 91.84694 457.167 96.03682 460.8 100.9256 460.8L100.9256 460.8L492.9744 460.8C 497.8632 460.8 502.053 457.167 502.7493 452.3243C 502.8163 451.8581 502.85 451.3877 502.85 450.9167L502.85 450.9167L502.85 411.3834C 502.85 410.9124 502.8163 410.442 502.7493 409.9757C 502.053 405.133 497.8632 401.5 492.9744 401.5L492.9744 401.5L100.9256 401.5C 96.03682 401.5 91.84694 405.133 91.15067 409.9757C 91.08365 410.442 91.05 410.9124 91.05 411.3834z" stroke="#FF0000" stroke-width="0.75" fill="none" /><g clip-path="url(#2)"></g></g></g></svg>