<svg xmlns="http://www.w3.org/2000/svg" xmlns:xlink="http://www.w3.org/1999/xlink" id="body_5" preserveAspectRatio="xMinYMin meet" viewBox="0 0 793 1121"><defs><clipPath id="1"><path id="" clip-rule="evenodd" d="M0 841L0 -0.9000244L0 -0.9000244L595.3 -0.9000244L595.3 -0.9000244L595.3 841L595.3 841L0 841z" /></clipPath></defs><g transform="matrix(1.333333 0 0 1.333333 0 0)"><g clip-path="url(#1)"><g transform="matrix(0.7498667 0 0 0.7500001 162.025 104.025)"><g transform="matrix(1 0 0 1 0 0)"><image x="0" y="0" xlink:href="img_17.png" width="375" height="117" /></g></g><path id="157" transform="matrix(1 0 0 -1 0 841)" d="M161.65 736.975L161.65 649.225" stroke="#595959" stroke-width="0.75" fill="none" /><path id="158" transform="matrix(1 0 0 -1 0 841)" d="M443.6 736.975L443.6 649.225" stroke="#595959" stroke-width="0.75" fill="none" /><path id="159" transform="matrix(1 0 0 -1 0 841)" d="M161.275 737.35L443.975 737.35" stroke="#595959" stroke-width="0.75" fill="none" /><path id="160" transform="matrix(1 0 0 -1 0 841)" d="M161.275 648.85L443.975 648.85" stroke="#595959" stroke-width="0.75" fill="none" /><g transform="matrix(0.3515624 0 0 0.3515403 146.707 236.868)"><g transform="matrix(1 0 0 1 0 0)"><image x="0" y="0" xlink:href="img_18.png" width="887" height="593" /></g></g><path id="226" transform="matrix(1 0 0 -1 0 841)" d="M146.332 604.132L146.332 395.6686" stroke="#7F7F7F" stroke-width="0.75" fill="none" /><path id="227" transform="matrix(1 0 0 -1 0 841)" d="M458.9179 604.132L458.9179 395.6686" stroke="#7F7F7F" stroke-width="0.75" fill="none" /><path id="228" transform="matrix(1 0 0 -1 0 841)" d="M145.957 604.507L459.2929 604.507" stroke="#7F7F7F" stroke-width="0.75" fill="none" /><path id="229" transform="matrix(1 0 0 -1 0 841)" d="M145.957 395.2936L459.2929 395.2936" stroke="#7F7F7F" stroke-width="0.75" fill="none" /><g transform="matrix(0.7569394 0 0 0.7575001 118.31 510.285)"><g transform="matrix(1 0 0 1 0 0)"><image x="0" y="0" xlink:href="img_19.png" width="487" height="84" /></g></g><path id="287" transform="matrix(1 0 0 -1 0 841)" d="M117.935 330.715L117.935 267.085" stroke="#7F7F7F" stroke-width="0.75" fill="none" /><path id="288" transform="matrix(1 0 0 -1 0 841)" d="M487.3145 330.715L487.3145 267.085" stroke="#7F7F7F" stroke-width="0.75" fill="none" /><path id="289" transform="matrix(1 0 0 -1 0 841)" d="M117.56 331.09L487.6895 331.09" stroke="#7F7F7F" stroke-width="0.75" fill="none" /><path id="290" transform="matrix(1 0 0 -1 0 841)" d="M117.56 266.71L487.6895 266.71" stroke="#7F7F7F" stroke-width="0.75" fill="none" /><g transform="matrix(0.6846651 0 0 0.68475 118.4 702.4789)"><g transform="matrix(1 0 0 1 0 0)"><image x="0" y="0" xlink:href="img_20.png" width="538" height="194" /></g></g><path id="422" transform="matrix(1 0 0 -1 0 841)" d="M118.275 138.521L118.275 5.679535" stroke="#7F7F7F" stroke-width="0.25" fill="none" /><path id="423" transform="matrix(1 0 0 -1 0 841)" d="M486.8748 138.521L486.8748 5.679535" stroke="#7F7F7F" stroke-width="0.25" fill="none" /><path id="424" transform="matrix(1 0 0 -1 0 841)" d="M118.15 138.646L486.9998 138.646" stroke="#7F7F7F" stroke-width="0.25" fill="none" /><path id="425" transform="matrix(1 0 0 -1 0 841)" d="M118.15 5.554535L486.9998 5.554535" stroke="#7F7F7F" stroke-width="0.25" fill="none" /></g></g></svg>