<svg xmlns="http://www.w3.org/2000/svg" xmlns:xlink="http://www.w3.org/1999/xlink" id="body_1" preserveAspectRatio="xMinYMin meet" viewBox="0 0 793 1121"><defs><clipPath id="1"><path id="" clip-rule="evenodd" d="M0 841L0 -0.9000244L0 -0.9000244L595.3 -0.9000244L595.3 -0.9000244L595.3 841L595.3 841L0 841z" /></clipPath><clipPath id="2"><path id="" clip-rule="evenodd" d="M88.01468 101.5562L534.9005 101.5562L534.9005 101.5562L534.9005 139.3921L534.9005 139.3921L88.01468 139.3921z" /></clipPath></defs><g transform="matrix(1.333333 0 0 1.333333 0 0)"><g clip-path="url(#1)"><g transform="matrix(0.6711013 0 0 0.6691889 200.617 219.2501)"><g transform="matrix(1 0 0 1 0 0)"><image x="0" y="0" xlink:href="img_01.png" width="304" height="387" /></g></g><g transform="matrix(0.3726588 0 0 0.3717844 200.466 547.597)"><g transform="matrix(1 0 0 1 0 0)"><image x="0" y="0" xlink:href="img_02.png" width="548" height="564" /></g></g><path id="429" transform="matrix(1 0 0 -1 0 841)" d="M91.75 736.875C 91.75 737.1774 91.76674 737.4795 91.80014 737.78C 92.25793 741.8987 95.77211 745.05 99.90738 745.05L99.90738 745.05L522.9926 745.05C 527.1279 745.05 530.6421 741.8987 531.0999 737.78C 531.1333 737.4795 531.15 737.1774 531.15 736.875L531.15 736.875L531.15 704.175C 531.15 703.8726 531.1333 703.5705 531.0999 703.27C 530.6421 699.1512 527.1279 696 522.9926 696L522.9926 696L99.90738 696C 95.77211 696 92.25793 699.1512 91.80014 703.27C 91.76674 703.5705 91.75 703.8726 91.75 704.175z" stroke="#FF0000" stroke-width="0.75" fill="none" /><g clip-path="url(#2)"></g></g></g></svg>