<svg xmlns="http://www.w3.org/2000/svg" xmlns:xlink="http://www.w3.org/1999/xlink" id="body_5" preserveAspectRatio="xMinYMin meet" viewBox="0 0 793 1121"><defs><clipPath id="1"><path id="" clip-rule="evenodd" d="M0 841L0 -0.9000244L0 -0.9000244L595.3 -0.9000244L595.3 -0.9000244L595.3 841L595.3 841L0 841z" /></clipPath></defs><g transform="matrix(1.333333 0 0 1.333333 0 0)"><g clip-path="url(#1)"><g transform="matrix(0.6536919 0 0 0.6538756 157.219 253.9971)"><g transform="matrix(1 0 0 1 0 0)"><image x="0" y="0" xlink:href="img_24.png" width="477" height="440" /></g></g><path id="394" transform="matrix(1 0 0 -1 0 841)" d="M157.219 587.0029L469.03 587.0029L469.03 587.0029L469.03 587.0029L469.03 587.0029L469.03 299.2976L469.03 299.2976L469.03 299.2976L469.03 299.2976L157.219 299.2976z" stroke="#7F7F7F" stroke-width="1" fill="none" /><g transform="matrix(0.3282221 0 0 0.3282153 157.119 579.9401)"><g transform="matrix(1 0 0 1 0 0)"><image x="0" y="0" xlink:href="img_25.png" width="950" height="745" /></g></g></g></g></svg>