<svg xmlns="http://www.w3.org/2000/svg" xmlns:xlink="http://www.w3.org/1999/xlink" id="body_1" preserveAspectRatio="xMinYMin meet" viewBox="0 0 793 1121"><defs><clipPath id="1"><path id="" clip-rule="evenodd" d="M0 841L0 -0.9000244L0 -0.9000244L595.3 -0.9000244L595.3 -0.9000244L595.3 841L595.3 841L0 841z" /></clipPath></defs><g transform="matrix(1.333333 0 0 1.333333 0 0)"><g clip-path="url(#1)"><g transform="matrix(0.3270745 0 0 0.3268286 175.066 125.9931)"><g transform="matrix(1 0 0 1 0 0)"><image x="0" y="0" xlink:href="img_01.png" width="780" height="213" /></g></g><g transform="matrix(0.7076923 0 0 0.7071429 96.883 282.2941)"><g transform="matrix(1 0 0 1 0 0)"><image x="0" y="0" xlink:href="img_02.png" width="26" height="14" /></g></g><g transform="matrix(0.5348389 0 0 0.5348393 146.619 328.53)"><g transform="matrix(1 0 0 1 0 0)"><image x="0" y="0" xlink:href="img_03.png" width="583" height="159" /></g></g><g transform="matrix(0.6606166 0 0 0.6606165 146.619 493.84)"><g transform="matrix(1 0 0 1 0 0)"><image x="0" y="0" xlink:href="img_04.png" width="472" height="129" /></g></g><g transform="matrix(0.3274944 0 0 0.3268726 175.066 642.187)"><g transform="matrix(1 0 0 1 0 0)"><image x="0" y="0" xlink:href="img_05.png" width="779" height="174" /></g></g><g transform="matrix(0.3274944 0 0 0.3268726 175.066 776.287)"><g transform="matrix(1 0 0 1 0 0)"><image x="0" y="0" xlink:href="img_06.png" width="779" height="174" /></g></g></g></g></svg>