<svg xmlns="http://www.w3.org/2000/svg" xmlns:xlink="http://www.w3.org/1999/xlink" id="body_4" preserveAspectRatio="xMinYMin meet" viewBox="0 0 793 1121"><defs><clipPath id="1"><path id="" clip-rule="evenodd" d="M0 841L0 -0.9000244L0 -0.9000244L595.3 -0.9000244L595.3 -0.9000244L595.3 841L595.3 841L0 841z" /></clipPath></defs><g transform="matrix(1.333333 0 0 1.333333 0 0)"><g clip-path="url(#1)"><g transform="matrix(0.3267603 0 0 0.3263478 132.371 7.695068)"><g transform="matrix(1 0 0 1 0 0)"><image x="0" y="0" xlink:href="img_19.png" width="1041" height="433" /></g></g><path id="2" transform="matrix(1 0 0 -1 0 841)" d="M132.246 833.4299L472.6534 833.4299L472.6534 833.4299L472.6534 833.4299L472.6534 833.4299L472.6534 691.8713L472.6534 691.8713L472.6534 691.8713L472.6534 691.8713L132.246 691.8713z" stroke="#7F7F7F" stroke-width="0.25" fill="none" /><g transform="matrix(0.4202934 0 0 0.4212646 175.066 235.6931)"><g transform="matrix(1 0 0 1 0 0)"><image x="0" y="0" xlink:href="img_20.png" width="607" height="184" /></g></g><g transform="matrix(0.3273893 0 0 0.3279854 132.371 354.8881)"><g transform="matrix(1 0 0 1 0 0)"><image x="0" y="0" xlink:href="img_21.png" width="1039" height="376" /></g></g><path id="90" transform="matrix(1 0 0 -1 0 841)" d="M132.246 486.237L472.6534 486.237L472.6534 486.237L472.6534 486.237L472.6534 486.237L472.6534 362.6644L472.6534 362.6644L472.6534 362.6644L472.6534 362.6644L132.246 362.6644z" stroke="#7F7F7F" stroke-width="0.25" fill="none" /><g transform="matrix(0.3273893 0 0 0.3278668 132.371 532.225)"><g transform="matrix(1 0 0 1 0 0)"><image x="0" y="0" xlink:href="img_22.png" width="1039" height="427" /></g></g><path id="146" transform="matrix(1 0 0 -1 0 841)" d="M132.246 308.9L472.6534 308.9L472.6534 308.9L472.6534 308.9L472.6534 308.9L472.6534 168.6509L472.6534 168.6509L472.6534 168.6509L472.6534 168.6509L132.246 168.6509z" stroke="#7F7F7F" stroke-width="0.25" fill="none" /></g></g></svg>