<svg xmlns="http://www.w3.org/2000/svg" xmlns:xlink="http://www.w3.org/1999/xlink" id="body_3" preserveAspectRatio="xMinYMin meet" viewBox="0 0 793 1121"><defs><clipPath id="1"><path id="" clip-rule="evenodd" d="M0 841L0 -0.9000244L0 -0.9000244L595.3 -0.9000244L595.3 -0.9000244L595.3 841L595.3 841L0 841z" /></clipPath><clipPath id="2"><path id="" clip-rule="evenodd" d="M106.9712 309.5212L514.0605 309.5212L514.0605 309.5212L514.0605 346.5604L514.0605 346.5604L106.9712 346.5604z" /></clipPath></defs><g transform="matrix(1.333333 0 0 1.333333 0 0)"><g clip-path="url(#1)"><g transform="matrix(0.327433 0 0 0.3279269 120.395 107.2861)"><g transform="matrix(1 0 0 1 0 0)"><image x="0" y="0" xlink:href="img_14.png" width="1114" height="402" /></g></g><path id="127" transform="matrix(1 0 0 -1 0 841)" d="M120.2701 733.8389L485.2802 733.8389L485.2802 733.8389L485.2802 733.8389L485.2802 733.8389L485.2802 601.7623L485.2802 601.7623L485.2802 601.7623L485.2802 601.7623L120.2701 601.7623z" stroke="#7F7F7F" stroke-width="0.2498824" fill="none" /><g transform="matrix(0.4202934 0 0 0.4202527 175.066 435.658)"><g transform="matrix(1 0 0 1 0 0)"><image x="0" y="0" xlink:href="img_15.png" width="607" height="172" /></g></g><g transform="matrix(0.3273893 0 0 0.3275911 132.371 542.246)"><g transform="matrix(1 0 0 1 0 0)"><image x="0" y="0" xlink:href="img_16.png" width="1039" height="437" /></g></g><path id="324" transform="matrix(1 0 0 -1 0 841)" d="M132.371 298.754L472.5284 298.754L472.5284 298.754L472.5284 298.754L472.5284 298.754L472.5284 155.5966L472.5284 155.5966L472.5284 155.5966L472.5284 155.5966L132.371 155.5966z" stroke="#7F7F7F" stroke-width="1" fill="none" /><g transform="matrix(0.3604752 0 0 0.3604254 146.719 749.2451)"><g transform="matrix(1 0 0 1 0 0)"><image x="0" y="0" xlink:href="img_17.png" width="865" height="164" /></g></g><path id="403" transform="matrix(1 0 0 -1 0 841)" d="M104.65 529.2415C 104.65 531.4045 105.5101 533.481 107.0396 535.0104C 108.569 536.5399 110.6456 537.4 112.8085 537.4L112.8085 537.4L112.8085 537.4L112.8085 537.4L508.2915 537.4C 510.4544 537.4 512.531 536.5399 514.0604 535.0104C 515.5899 533.481 516.45 531.4045 516.45 529.2415L516.45 529.2415L516.45 529.2415L516.45 529.2415L516.45 496.6085C 516.45 494.4456 515.5899 492.369 514.0604 490.8396C 512.531 489.3102 510.4544 488.45 508.2915 488.45L508.2915 488.45L508.2915 488.45L508.2915 488.45L112.8085 488.45C 110.6456 488.45 108.569 489.3102 107.0396 490.8396C 105.5101 492.369 104.65 494.4456 104.65 496.6085z" stroke="#FF0000" stroke-width="0.75" fill="none" /><g clip-path="url(#2)"></g></g></g></svg>