<svg xmlns="http://www.w3.org/2000/svg" xmlns:xlink="http://www.w3.org/1999/xlink" id="body_14" preserveAspectRatio="xMinYMin meet" viewBox="0 0 793 1121"><defs><clipPath id="1"><path id="" clip-rule="evenodd" d="M0 841L0 -0.9000244L0 -0.9000244L595.3 -0.9000244L595.3 -0.9000244L595.3 841L595.3 841L0 841z" /></clipPath><clipPath id="2"><path id="" clip-rule="evenodd" d="M89.25099 208.957L522.9002 208.957L522.9002 208.957L522.9002 259.1061L522.9002 259.1061L89.25099 259.1061z" /></clipPath></defs><g transform="matrix(1.333333 0 0 1.333333 0 0)"><g clip-path="url(#1)"><g transform="matrix(0.5694601 0 0 0.56946 175.116 2.228027)"><g transform="matrix(1 0 0 1 0 0)"><image x="0" y="0" xlink:href="img_67.png" width="448" height="344" /></g></g><g transform="matrix(0.3272682 0 0 0.3298262 118.923 382.027)"><g transform="matrix(1 0 0 1 0 0)"><image x="0" y="0" xlink:href="img_68.png" width="1126" height="87" /></g></g><path id="77" transform="matrix(1 0 0 -1 0 841)" d="M118.923 458.973L487.4269 458.973L487.4269 458.973L487.4269 458.973L487.4269 458.973L487.4269 430.2781L487.4269 430.2781L487.4269 430.2781L487.4269 430.2781L118.923 430.2781z" stroke="#7F7F7F" stroke-width="1" fill="none" /><g transform="matrix(0.5525625 0 0 0.5538085 160.917 466.36)"><g transform="matrix(1 0 0 1 0 0)"><image x="0" y="0" xlink:href="img_69.png" width="513" height="174" /></g></g><g transform="matrix(0.700874 0 0 0.7008778 175.166 711.498)"><g transform="matrix(1 0 0 1 0 0)"><image x="0" y="0" xlink:href="img_70.png" width="364" height="175" /></g></g><path id="268" transform="matrix(1 0 0 -1 0 841)" d="M175.166 129.502L430.2841 129.502L430.2841 129.502L430.2841 129.502L430.2841 129.502L430.2841 6.848389L430.2841 6.848389L430.2841 6.848389L430.2841 6.848389L175.166 6.848389z" stroke="#7F7F7F" stroke-width="1" fill="none" /><path id="269" transform="matrix(1 0 0 -1 0 841)" d="M86.2 628.1105C 86.2 630.9163 87.3158 633.6102 89.29984 635.5942C 91.28388 637.5782 93.97768 638.694 96.78354 638.694L96.78354 638.694L96.78354 638.694L96.78354 638.694L515.4164 638.694C 518.2224 638.694 520.9161 637.5782 522.9001 635.5942C 524.8842 633.6102 526 630.9163 526 628.1105L526 628.1105L526 628.1105L526 628.1105L526 585.7776C 526 582.9717 524.8842 580.2779 522.9001 578.2939C 520.9161 576.3098 518.2224 575.194 515.4164 575.194L515.4164 575.194L515.4164 575.194L515.4164 575.194L96.78354 575.194C 93.97768 575.194 91.28388 576.3098 89.29984 578.2939C 87.3158 580.2779 86.2 582.9717 86.2 585.7776z" stroke="#FF0000" stroke-width="0.5" fill="none" /><g clip-path="url(#2)"></g></g></g></svg>