<svg xmlns="http://www.w3.org/2000/svg" xmlns:xlink="http://www.w3.org/1999/xlink" id="body_13" preserveAspectRatio="xMinYMin meet" viewBox="0 0 793 1121"><defs><clipPath id="1"><path id="" clip-rule="evenodd" d="M0 841L0 -0.9000244L0 -0.9000244L595.3 -0.9000244L595.3 -0.9000244L595.3 841L595.3 841L0 841z" /></clipPath></defs><g transform="matrix(1.333333 0 0 1.333333 0 0)"><g clip-path="url(#1)"><g transform="matrix(0.3235329 0 0 0.3233091 118.173 2.679077)"><g transform="matrix(1 0 0 1 0 0)"><image x="0" y="0" xlink:href="img_61.png" width="1139" height="315" /></g></g><path id="2" transform="matrix(1 0 0 -1 0 841)" d="M118.048 838.446L486.8019 838.446L486.8019 838.446L486.8019 838.446L486.8019 838.446L486.8019 736.3536L486.8019 736.3536L486.8019 736.3536L486.8019 736.3536L118.048 736.3536z" stroke="#7F7F7F" stroke-width="0.25" fill="none" /><g transform="matrix(0.3201598 0 0 0.3200785 118.173 187.7841)"><g transform="matrix(1 0 0 1 0 0)"><image x="0" y="0" xlink:href="img_62.png" width="1151" height="283" /></g></g><path id="79" transform="matrix(1 0 0 -1 0 841)" d="M118.048 653.3409L486.8019 653.3409L486.8019 653.3409L486.8019 653.3409L486.8019 653.3409L486.8019 562.5087L486.8019 562.5087L486.8019 562.5087L486.8019 562.5087L118.048 562.5087z" stroke="#7F7F7F" stroke-width="0.25" fill="none" /><g transform="matrix(0.3276337 0 0 0.3273263 89.19899 327.034)"><g transform="matrix(1 0 0 1 0 0)"><image x="0" y="0" xlink:href="img_63.png" width="654" height="433" /></g></g><g transform="matrix(0.3272981 0 0 0.3273263 308.971 327.034)"><g transform="matrix(1 0 0 1 0 0)"><image x="0" y="0" xlink:href="img_64.png" width="633" height="433" /></g></g><g transform="matrix(0.3204382 0 0 0.3204148 118.173 593.645)"><g transform="matrix(1 0 0 1 0 0)"><image x="0" y="0" xlink:href="img_65.png" width="1150" height="287" /></g></g><path id="260" transform="matrix(1 0 0 -1 0 841)" d="M118.048 247.48L486.8019 247.48L486.8019 247.48L486.8019 247.48L486.8019 247.48L486.8019 155.271L486.8019 155.271L486.8019 155.271L486.8019 155.271L118.048 155.271z" stroke="#7F7F7F" stroke-width="0.25" fill="none" /></g></g></svg>