<svg xmlns="http://www.w3.org/2000/svg" xmlns:xlink="http://www.w3.org/1999/xlink" id="body_12" preserveAspectRatio="xMinYMin meet" viewBox="0 0 793 1121"><defs><clipPath id="1"><path id="" clip-rule="evenodd" d="M0 841L0 -0.9000244L0 -0.9000244L595.3 -0.9000244L595.3 -0.9000244L595.3 841L595.3 841L0 841z" /></clipPath></defs><g transform="matrix(1.333333 0 0 1.333333 0 0)"><g clip-path="url(#1)"><g transform="matrix(0.3287278 0 0 0.3286036 118.173 1.04303)"><g transform="matrix(1 0 0 1 0 0)"><image x="0" y="0" xlink:href="img_55.png" width="1121" height="177" /></g></g><path id="2" transform="matrix(1 0 0 -1 0 841)" d="M118.173 839.957L486.6769 839.957L486.6769 839.957L486.6769 839.957L486.6769 839.957L486.6769 781.7941L486.6769 781.7941L486.6769 781.7941L486.6769 781.7941L118.173 781.7941z" stroke="#7F7F7F" stroke-width="1" fill="none" /><g transform="matrix(0.8216364 0 0 0.8216366 132.421 158.145)"><g transform="matrix(1 0 0 1 0 0)"><image x="0" y="0" xlink:href="img_56.png" width="414" height="250" /></g></g><path id="157" transform="matrix(1 0 0 -1 0 841)" d="M132.296 682.98L472.7035 682.98L472.7035 682.98L472.7035 682.98L472.7035 682.98L472.7035 477.3209L472.7035 477.3209L472.7035 477.3209L472.7035 477.3209L132.296 477.3209z" stroke="#000000" stroke-width="0.25" fill="none" /><g transform="matrix(0.3269778 0 0 0.3274984 118.173 424.869)"><g transform="matrix(1 0 0 1 0 0)"><image x="0" y="0" xlink:href="img_57.png" width="1127" height="275" /></g></g><g transform="matrix(0.450594 0 0 0.4518139 146.669 599.527)"><g transform="matrix(1 0 0 1 0 0)"><image x="0" y="0" xlink:href="img_58.png" width="692" height="163" /></g></g><path id="326" transform="matrix(1 0 0 -1 0 841)" d="M146.669 241.473L458.48 241.473L458.48 241.473L458.48 241.473L458.48 241.473L458.48 167.8273L458.48 167.8273L458.48 167.8273L458.48 167.8273L146.669 167.8273z" stroke="#7F7F7F" stroke-width="1" fill="none" /><g transform="matrix(0.3201598 0 0 0.3201601 118.173 719.888)"><g transform="matrix(1 0 0 1 0 0)"><image x="0" y="0" xlink:href="img_59.png" width="1151" height="150" /></g></g><path id="422" transform="matrix(1 0 0 -1 0 841)" d="M118.048 121.237L486.8019 121.237L486.8019 121.237L486.8019 121.237L486.8019 121.237L486.8019 72.96301L486.8019 72.96301L486.8019 72.96301L486.8019 72.96301L118.048 72.96301z" stroke="#7F7F7F" stroke-width="0.25" fill="none" /></g></g></svg>