<svg xmlns="http://www.w3.org/2000/svg" xmlns:xlink="http://www.w3.org/1999/xlink" id="body_6" preserveAspectRatio="xMinYMin meet" viewBox="0 0 793 1121"><defs><clipPath id="1"><path id="" clip-rule="evenodd" d="M0 841L0 -0.9000244L0 -0.9000244L595.3 -0.9000244L595.3 -0.9000244L595.3 841L595.3 841L0 841z" /></clipPath></defs><g transform="matrix(1.333333 0 0 1.333333 0 0)"><g clip-path="url(#1)"><g transform="matrix(0.4232967 0 0 0.423609 174.454 4.036011)"><g transform="matrix(1 0 0 1 0 0)"><image x="0" y="0" xlink:href="img_27.png" width="607" height="861" /></g></g><path id="2" transform="matrix(1 0 0 -1 0 841)" d="M174.454 836.964L431.3951 836.964L431.3951 836.964L431.3951 836.964L431.3951 836.964L431.3951 472.2367L431.3951 472.2367L431.3951 472.2367L431.3951 472.2367L174.454 472.2367z" stroke="#7F7F7F" stroke-width="1" fill="none" /><g transform="matrix(0.4732713 0 0 0.4732711 168.404 403.132)"><g transform="matrix(1 0 0 1 0 0)"><image x="0" y="0" xlink:href="img_28.png" width="569" height="442" /></g></g><path id="50" transform="matrix(1 0 0 -1 0 841)" d="M168.404 437.868L437.6953 437.868L437.6953 437.868L437.6953 437.868L437.6953 437.868L437.6953 228.6822L437.6953 228.6822L437.6953 228.6822L437.6953 228.6822L168.404 228.6822z" stroke="#7F7F7F" stroke-width="1" fill="none" /><g transform="matrix(0.3273556 0 0 0.3275203 137.601 660.936)"><g transform="matrix(1 0 0 1 0 0)"><image x="0" y="0" xlink:href="img_29.png" width="1007" height="259" /></g></g><path id="131" transform="matrix(1 0 0 -1 0 841)" d="M137.2269 180.4381L467.6221 180.4381L467.6221 180.4381L467.6221 180.4381L467.6221 180.4381L467.6221 94.86221L467.6221 94.86221L467.6221 94.86221L467.6221 94.86221L137.2269 94.86221z" stroke="#7F7F7F" stroke-width="0.7481137" fill="none" /></g></g></svg>