<svg xmlns="http://www.w3.org/2000/svg" xmlns:xlink="http://www.w3.org/1999/xlink" id="body_2" preserveAspectRatio="xMinYMin meet" viewBox="0 0 793 1121"><defs><clipPath id="1"><path id="" clip-rule="evenodd" d="M0 841L0 -0.9000244L0 -0.9000244L595.3 -0.9000244L595.3 -0.9000244L595.3 841L595.3 841L0 841z" /></clipPath></defs><g transform="matrix(1.333333 0 0 1.333333 0 0)"><g clip-path="url(#1)"><g transform="matrix(0.6138012 0 0 0.6122701 146.669 5.227051)"><g transform="matrix(1 0 0 1 0 0)"><image x="0" y="0" xlink:href="img_05.png" width="508" height="183" /></g></g><g transform="matrix(0.3353084 0 0 0.3350832 118.173 155.63)"><g transform="matrix(1 0 0 1 0 0)"><image x="0" y="0" xlink:href="img_06.png" width="1099" height="470" /></g></g><path id="24" transform="matrix(1 0 0 -1 0 841)" d="M118.048 685.495L486.8019 685.495L486.8019 685.495L486.8019 685.495L486.8019 685.495L486.8019 527.7559L486.8019 527.7559L486.8019 527.7559L486.8019 527.7559L118.048 527.7559z" stroke="#7F7F7F" stroke-width="0.25" fill="none" /><g transform="matrix(0.3476452 0 0 0.34744 118.173 349.832)"><g transform="matrix(1 0 0 1 0 0)"><image x="0" y="0" xlink:href="img_07.png" width="1060" height="377" /></g></g><path id="57" transform="matrix(1 0 0 -1 0 841)" d="M118.048 491.293L486.8019 491.293L486.8019 491.293L486.8019 491.293L486.8019 491.293L486.8019 360.0582L486.8019 360.0582L486.8019 360.0582L486.8019 360.0582L118.048 360.0582z" stroke="#7F7F7F" stroke-width="0.25" fill="none" /><g transform="matrix(0.360298 0 0 0.3607731 162.403 602.193)"><g transform="matrix(1 0 0 1 0 0)"><image x="0" y="0" xlink:href="img_08.png" width="358" height="275" /></g></g><path id="234" transform="matrix(1 0 0 -1 0 841)" d="M162.028 239.182L291.7647 239.182L291.7647 239.182L291.7647 239.182L291.7647 239.182L291.7647 139.2194L291.7647 139.2194L291.7647 139.2194L291.7647 139.2194L162.028 139.2194z" stroke="#7F7F7F" stroke-width="0.75" fill="none" /><g transform="matrix(0.3275535 0 0 0.3285185 294.4414 602.193)"><g transform="matrix(1 0 0 1 0 0)"><image x="0" y="0" xlink:href="img_09.png" width="452" height="302" /></g></g><path id="236" transform="matrix(1 0 0 -1 0 841)" d="M294.44 238.807L442.4956 238.807L442.4956 238.807L442.4956 238.807L442.4956 238.807L442.4956 139.5944L442.4956 139.5944L442.4956 139.5944L442.4956 139.5944L294.44 139.5944z" stroke="#7F7F7F" stroke-width="1" fill="none" /></g></g></svg>