<svg xmlns="http://www.w3.org/2000/svg" xmlns:xlink="http://www.w3.org/1999/xlink" id="body_3" preserveAspectRatio="xMinYMin meet" viewBox="0 0 793 1121"><defs><clipPath id="1"><path id="" clip-rule="evenodd" d="M0 841L0 -0.9000244L0 -0.9000244L595.3 -0.9000244L595.3 -0.9000244L595.3 841L595.3 841L0 841z" /></clipPath><clipPath id="2"><path id="" clip-rule="evenodd" d="M103.836 573.771L486.4777 573.771L486.4777 573.771L486.4777 621.4186L486.4777 621.4186L103.836 621.4186z" /></clipPath></defs><g transform="matrix(1.333333 0 0 1.333333 0 0)"><g clip-path="url(#1)"><g transform="matrix(0.3276186 0 0 0.3277047 148.154 45.13501)"><g transform="matrix(1 0 0 1 0 0)"><image x="0" y="0" xlink:href="img_11.png" width="622" height="519" /></g></g><path id="60" transform="matrix(1 0 0 -1 0 841)" d="M147.779 796.24L352.3077 796.24L352.3077 796.24L352.3077 796.24L352.3077 796.24L352.3077 625.4113L352.3077 625.4113L352.3077 625.4113L352.3077 625.4113L147.779 625.4113z" stroke="#7F7F7F" stroke-width="0.75" fill="none" /><g transform="matrix(0.3270469 0 0 0.3270745 355.183 45.13501)"><g transform="matrix(1 0 0 1 0 0)"><image x="0" y="0" xlink:href="img_12.png" width="311" height="520" /></g></g><path id="62" transform="matrix(1 0 0 -1 0 841)" d="M355.183 795.865L456.8946 795.865L456.8946 795.865L456.8946 795.865L456.8946 795.865L456.8946 625.7863L456.8946 625.7863L456.8946 625.7863L456.8946 625.7863L355.183 625.7863z" stroke="#7F7F7F" stroke-width="1" fill="none" /><g transform="matrix(0.4499438 0 0 0.449495 146.669 293.242)"><g transform="matrix(1 0 0 1 0 0)"><image x="0" y="0" xlink:href="img_13.png" width="693" height="464" /></g></g><path id="154" transform="matrix(1 0 0 -1 0 841)" d="M146.669 547.758L458.48 547.758L458.48 547.758L458.48 547.758L458.48 547.758L458.48 339.1923L458.48 339.1923L458.48 339.1923L458.48 339.1923L146.669 339.1923z" stroke="#7F7F7F" stroke-width="1" fill="none" /><g transform="matrix(0.3546717 0 0 0.3541807 118.173 674.914)"><g transform="matrix(1 0 0 1 0 0)"><image x="0" y="0" xlink:href="img_14.png" width="1039" height="328" /></g></g><path id="348" transform="matrix(1 0 0 -1 0 841)" d="M100.941 263.6064C 100.941 266.2887 102.0077 268.8639 103.9044 270.7606C 105.8011 272.6573 108.3763 273.724 111.0586 273.724L111.0586 273.724L111.0586 273.724L111.0586 273.724L479.3234 273.724C 482.0057 273.724 484.5809 272.6573 486.4776 270.7606C 488.3743 268.8639 489.441 266.2887 489.441 263.6064L489.441 263.6064L489.441 263.6064L489.441 263.6064L489.441 223.1357C 489.441 220.4534 488.3743 217.8782 486.4776 215.9815C 484.5809 214.0848 482.0057 213.0181 479.3234 213.0181L479.3234 213.0181L479.3234 213.0181L479.3234 213.0181L111.0586 213.0181C 108.3763 213.0181 105.8011 214.0848 103.9044 215.9815C 102.0077 217.8782 100.941 220.4534 100.941 223.1357z" stroke="#FF0000" stroke-width="0.75" fill="none" /><g clip-path="url(#2)"></g></g></g></svg>