<svg xmlns="http://www.w3.org/2000/svg" xmlns:xlink="http://www.w3.org/1999/xlink" id="body_16" preserveAspectRatio="xMinYMin meet" viewBox="0 0 793 1121"><defs><clipPath id="1"><path id="" clip-rule="evenodd" d="M0 841L0 -0.9000244L0 -0.9000244L595.3 -0.9000244L595.3 -0.9000244L595.3 841L595.3 841L0 841z" /></clipPath></defs><g transform="matrix(1.333333 0 0 1.333333 0 0)"><g clip-path="url(#1)"><g transform="matrix(0.4499438 0 0 0.4496375 146.669 8.249023)"><g transform="matrix(1 0 0 1 0 0)"><image x="0" y="0" xlink:href="img_76.png" width="693" height="409" /></g></g><path id="2" transform="matrix(1 0 0 -1 0 841)" d="M146.669 832.751L458.48 832.751L458.48 832.751L458.48 832.751L458.48 832.751L458.48 648.8492L458.48 648.8492L458.48 648.8492L458.48 648.8492L146.669 648.8492z" stroke="#7F7F7F" stroke-width="1" fill="none" /></g></g></svg>