<svg xmlns="http://www.w3.org/2000/svg" xmlns:xlink="http://www.w3.org/1999/xlink" id="body_7" preserveAspectRatio="xMinYMin meet" viewBox="0 0 793 1121"><defs><clipPath id="1"><path id="" clip-rule="evenodd" d="M0 841L0 -0.9000244L0 -0.9000244L595.3 -0.9000244L595.3 -0.9000244L595.3 841L595.3 841L0 841z" /></clipPath><clipPath id="2"><path id="" clip-rule="evenodd" d="M98.58569 520.1856L479.022 520.1856L479.022 520.1856L479.022 588.2161L479.022 588.2161L98.58569 588.2161z" /></clipPath></defs><g transform="matrix(1.333333 0 0 1.333333 0 0)"><g clip-path="url(#1)"><g transform="matrix(0.6031161 0 0 0.6050547 189.289 22.24005)"><g transform="matrix(1 0 0 1 0 0)"><image x="0" y="0" xlink:href="img_31.png" width="376" height="459" /></g></g><g transform="matrix(0.3272682 0 0 0.3277599 118.173 363.411)"><g transform="matrix(1 0 0 1 0 0)"><image x="0" y="0" xlink:href="img_32.png" width="1126" height="363" /></g></g><g transform="matrix(0.3281424 0 0 0.326972 118.123 644.93)"><g transform="matrix(1 0 0 1 0 0)"><image x="0" y="0" xlink:href="img_33.png" width="1123" height="502" /></g></g><path id="211" transform="matrix(1 0 0 -1 0 841)" d="M118.123 196.07L486.6269 196.07L486.6269 196.07L486.6269 196.07L486.6269 196.07L486.6269 31.9301L486.6269 31.9301L486.6269 31.9301L486.6269 31.9301L118.123 31.9301z" stroke="#7F7F7F" stroke-width="1" fill="none" /><path id="234" transform="matrix(1 0 0 -1 0 841)" d="M94.588 314.5297C 94.588 318.2101 96.0516 321.7436 98.65405 324.346C 101.2565 326.9485 104.7899 328.412 108.4704 328.412L108.4704 328.412L108.4704 328.412L108.4704 328.412L469.2056 328.412C 472.886 328.412 476.4195 326.9485 479.0219 324.346C 481.6244 321.7436 483.088 318.2101 483.088 314.5297L483.088 314.5297L483.088 314.5297L483.088 314.5297L483.088 259.0003C 483.088 255.3199 481.6244 251.7865 479.0219 249.184C 476.4195 246.5815 472.886 245.118 469.2056 245.118L469.2056 245.118L469.2056 245.118L469.2056 245.118L108.4704 245.118C 104.7899 245.118 101.2565 246.5815 98.65405 249.184C 96.0516 251.7865 94.588 255.3199 94.588 259.0003z" stroke="#FF0000" stroke-width="0.75" fill="none" /><g clip-path="url(#2)"></g></g></g></svg>