<svg xmlns="http://www.w3.org/2000/svg" xmlns:xlink="http://www.w3.org/1999/xlink" id="body_9" preserveAspectRatio="xMinYMin meet" viewBox="0 0 793 1121"><defs><clipPath id="1"><path id="" clip-rule="evenodd" d="M0 841L0 -0.9000244L0 -0.9000244L595.3 -0.9000244L595.3 -0.9000244L595.3 841L595.3 841L0 841z" /></clipPath><clipPath id="2"><path id="" clip-rule="evenodd" d="M92.92896 18.23492L520.4027 18.23492L520.4027 18.23492L520.4027 66.50867L520.4027 66.50867L92.92896 66.50867z" /></clipPath></defs><g transform="matrix(1.333333 0 0 1.333333 0 0)"><g clip-path="url(#1)"><g transform="matrix(0.5326057 0 0 0.5326051 175.166 173.4421)"><g transform="matrix(1 0 0 1 0 0)"><image x="0" y="0" xlink:href="img_40.png" width="479" height="94" /></g></g><path id="166" transform="matrix(1 0 0 -1 0 841)" d="M175.041 667.683L430.4091 667.683L430.4091 667.683L430.4091 667.683L430.4091 667.683L430.4091 617.3681L430.4091 617.3681L430.4091 617.3681L430.4091 617.3681L175.041 617.3681z" stroke="#7F7F7F" stroke-width="0.25" fill="none" /><g transform="matrix(0.3275591 0 0 0.3262862 118.173 292.727)"><g transform="matrix(1 0 0 1 0 0)"><image x="0" y="0" xlink:href="img_41.png" width="1125" height="308" /></g></g><path id="262" transform="matrix(1 0 0 -1 0 841)" d="M118.048 548.398L486.8019 548.398L486.8019 548.398L486.8019 548.398L486.8019 548.398L486.8019 447.6519L486.8019 447.6519L486.8019 447.6519L486.8019 447.6519L118.048 447.6519z" stroke="#7F7F7F" stroke-width="0.25" fill="none" /><g transform="matrix(0.3275591 0 0 0.3275116 118.223 458.687)"><g transform="matrix(1 0 0 1 0 0)"><image x="0" y="0" xlink:href="img_42.png" width="1125" height="319" /></g></g><path id="349" transform="matrix(1 0 0 -1 0 841)" d="M118.098 382.438L486.8519 382.438L486.8519 382.438L486.8519 382.438L486.8519 382.438L486.8519 277.7118L486.8519 277.7118L486.8519 277.7118L486.8519 277.7118L118.098 277.7118z" stroke="#7F7F7F" stroke-width="0.25" fill="none" /><g transform="matrix(0.3275591 0 0 0.3275116 119.223 669.327)"><g transform="matrix(1 0 0 1 0 0)"><image x="0" y="0" xlink:href="img_43.png" width="1125" height="319" /></g></g><path id="444" transform="matrix(1 0 0 -1 0 841)" d="M119.223 171.673L487.7269 171.673L487.7269 171.673L487.7269 171.673L487.7269 171.673L487.7269 67.19678L487.7269 67.19678L487.7269 67.19678L487.7269 67.19678L119.223 67.19678z" stroke="#7F7F7F" stroke-width="1" fill="none" /><path id="528" transform="matrix(1 0 0 -1 0 841)" d="M90 819.0605C 90 821.7735 91.07891 824.3782 92.99734 826.2967C 94.91576 828.2151 97.52048 829.294 100.2335 829.294L100.2335 829.294L100.2335 829.294L100.2335 829.294L513.1665 829.294C 515.8795 829.294 518.4843 828.2151 520.4027 826.2967C 522.3211 824.3782 523.4 821.7735 523.4 819.0605L523.4 819.0605L523.4 819.0605L523.4 819.0605L523.4 778.1276C 523.4 775.4145 522.3211 772.8098 520.4027 770.8914C 518.4843 768.9729 515.8795 767.894 513.1665 767.894L513.1665 767.894L513.1665 767.894L513.1665 767.894L100.2335 767.894C 97.52048 767.894 94.91576 768.9729 92.99734 770.8914C 91.07891 772.8098 90 775.4145 90 778.1276z" stroke="#FF0000" stroke-width="0.75" fill="none" /><g clip-path="url(#2)"></g></g></g></svg>