<svg xmlns="http://www.w3.org/2000/svg" xmlns:xlink="http://www.w3.org/1999/xlink" id="body_5" preserveAspectRatio="xMinYMin meet" viewBox="0 0 793 1121"><defs><clipPath id="1"><path id="" clip-rule="evenodd" d="M0 841L0 -0.9000244L0 -0.9000244L595.3 -0.9000244L595.3 -0.9000244L595.3 841L595.3 841L0 841z" /></clipPath></defs><g transform="matrix(1.333333 0 0 1.333333 0 0)"><g clip-path="url(#1)"><g transform="matrix(0.3275313 0 0 0.3289191 121.209 6.588013)"><g transform="matrix(1 0 0 1 0 0)"><image x="0" y="0" xlink:href="img_23.png" width="1109" height="191" /></g></g><path id="2" transform="matrix(1 0 0 -1 0 841)" d="M120.8376 834.7833L484.8126 834.7833L484.8126 834.7833L484.8126 834.7833L484.8126 834.7833L484.8126 771.2171L484.8126 771.2171L484.8126 771.2171L484.8126 771.2171L120.8376 771.2171z" stroke="#7F7F7F" stroke-width="0.7427121" fill="none" /><g transform="matrix(0.4255242 0 0 0.4266568 118.123 142.163)"><g transform="matrix(1 0 0 1 0 0)"><image x="0" y="0" xlink:href="img_24.png" width="866" height="753" /></g></g><g transform="matrix(0.4028566 0 0 0.4025722 146.669 493.088)"><g transform="matrix(1 0 0 1 0 0)"><image x="0" y="0" xlink:href="img_25.png" width="774" height="806" /></g></g><path id="118" transform="matrix(1 0 0 -1 0 841)" d="M146.294 348.287L458.855 348.287L458.855 348.287L458.855 348.287L458.855 348.287L458.855 23.06375L458.855 23.06375L458.855 23.06375L458.855 23.06375L146.294 23.06375z" stroke="#7F7F7F" stroke-width="0.75" fill="none" /></g></g></svg>