<svg xmlns="http://www.w3.org/2000/svg" xmlns:xlink="http://www.w3.org/1999/xlink" id="body_4" preserveAspectRatio="xMinYMin meet" viewBox="0 0 793 1121"><defs><clipPath id="1"><path id="" clip-rule="evenodd" d="M0 841L0 -0.9000244L0 -0.9000244L595.3 -0.9000244L595.3 -0.9000244L595.3 841L595.3 841L0 841z" /></clipPath></defs><g transform="matrix(1.333333 0 0 1.333333 0 0)"><g clip-path="url(#1)"><g transform="matrix(0.3275591 0 0 0.3277538 118.173 28.19806)"><g transform="matrix(1 0 0 1 0 0)"><image x="0" y="0" xlink:href="img_16.png" width="1125" height="573" /></g></g><g transform="matrix(0.338077 0 0 0.337817 118.923 293.627)"><g transform="matrix(1 0 0 1 0 0)"><image x="0" y="0" xlink:href="img_17.png" width="1090" height="181" /></g></g><path id="154" transform="matrix(1 0 0 -1 0 841)" d="M118.923 547.373L487.4269 547.373L487.4269 547.373L487.4269 547.373L487.4269 547.373L487.4269 486.2281L487.4269 486.2281L487.4269 486.2281L487.4269 486.2281L118.923 486.2281z" stroke="#7F7F7F" stroke-width="1" fill="none" /><g transform="matrix(0.3533115 0 0 0.3533292 118.173 394.39)"><g transform="matrix(1 0 0 1 0 0)"><image x="0" y="0" xlink:href="img_18.png" width="1043" height="231" /></g></g><path id="192" transform="matrix(1 0 0 -1 0 841)" d="M117.798 446.985L487.0519 446.985L487.0519 446.985L487.0519 446.985L487.0519 446.985L487.0519 364.616L487.0519 364.616L487.0519 364.616L487.0519 364.616L117.798 364.616z" stroke="#7F7F7F" stroke-width="0.75" fill="none" /><g transform="matrix(0.4192308 0 0 0.4192527 118.173 552.432)"><g transform="matrix(1 0 0 1 0 0)"><image x="0" y="0" xlink:href="img_19.png" width="879" height="220" /></g></g><path id="302" transform="matrix(1 0 0 -1 0 841)" d="M118.173 288.568L486.6769 288.568L486.6769 288.568L486.6769 288.568L486.6769 288.568L486.6769 196.3324L486.6769 196.3324L486.6769 196.3324L486.6769 196.3324L118.173 196.3324z" stroke="#7F7F7F" stroke-width="1" fill="none" /><g transform="matrix(0.5774289 0 0 0.5774278 363.108 735.527)"><g transform="matrix(1 0 0 1 0 0)"><image x="0" y="0" xlink:href="img_20.png" width="26" height="27" /></g></g><g transform="matrix(0.7499076 0 0 0.7499063 388.632 735.3699)"><g transform="matrix(1 0 0 1 0 0)"><image x="0" y="0" xlink:href="img_21.png" width="23" height="21" /></g></g></g></g></svg>