<svg xmlns="http://www.w3.org/2000/svg" xmlns:xlink="http://www.w3.org/1999/xlink" id="body_8" preserveAspectRatio="xMinYMin meet" viewBox="0 0 793 1121"><defs><clipPath id="1"><path id="" clip-rule="evenodd" d="M0 841L0 -0.9000244L0 -0.9000244L595.3 -0.9000244L595.3 -0.9000244L595.3 841L595.3 841L0 841z" /></clipPath><clipPath id="2"><path id="" clip-rule="evenodd" d="M85.47896 897.5229L512.9527 897.5229L512.9527 897.5229L512.9527 945.7966L512.9527 945.7966L85.47896 945.7966z" /></clipPath></defs><g transform="matrix(1.333333 0 0 1.333333 0 0)"><g clip-path="url(#1)"><g transform="matrix(0.3434333 0 0 0.3429017 118.173 3.143066)"><g transform="matrix(1 0 0 1 0 0)"><image x="0" y="0" xlink:href="img_35.png" width="1073" height="477" /></g></g><path id="2" transform="matrix(1 0 0 -1 0 841)" d="M118.173 837.857L486.6769 837.857L486.6769 837.857L486.6769 837.857L486.6769 837.857L486.6769 674.2929L486.6769 674.2929L486.6769 674.2929L486.6769 674.2929L118.173 674.2929z" stroke="#7F7F7F" stroke-width="1" fill="none" /><g transform="matrix(0.3333994 0 0 0.3331501 220.158 247.234)"><g transform="matrix(1 0 0 1 0 0)"><image x="0" y="0" xlink:href="img_36.png" width="495" height="642" /></g></g><path id="72" transform="matrix(1 0 0 -1 0 841)" d="M219.7829 594.1411L385.5658 594.1411L385.5658 594.1411L385.5658 594.1411L385.5658 594.1411L385.5658 379.5085L385.5658 379.5085L385.5658 379.5085L385.5658 379.5085L219.7829 379.5085z" stroke="#7F7F7F" stroke-width="0.7501715" fill="none" /><g transform="matrix(0.4618568 0 0 0.4625191 189.414 514.58)"><g transform="matrix(1 0 0 1 0 0)"><image x="0" y="0" xlink:href="img_37.png" width="491" height="135" /></g></g><path id="118" transform="matrix(1 0 0 -1 0 841)" d="M189.289 326.545L416.3106 326.545L416.3106 326.545L416.3106 326.545L416.3106 326.545L416.3106 263.8549L416.3106 263.8549L416.3106 263.8549L416.3106 263.8549L189.289 263.8549z" stroke="#7F7F7F" stroke-width="0.25" fill="none" /><g transform="matrix(0.3270745 0 0 0.3272651 217.91 645.343)"><g transform="matrix(1 0 0 1 0 0)"><image x="0" y="0" xlink:href="img_38.png" width="520" height="547" /></g></g><path id="227" transform="matrix(1 0 0 -1 0 841)" d="M217.91 195.657L387.9887 195.657L387.9887 195.657L387.9887 195.657L387.9887 195.657L387.9887 16.64297L387.9887 16.64297L387.9887 16.64297L387.9887 16.64297L217.91 16.64297z" stroke="#7F7F7F" stroke-width="1" fill="none" /><path id="228" transform="matrix(1 0 0 -1 0 841)" d="M82.55 -60.2275C 82.55 -57.51444 83.62891 -54.90972 85.54734 -52.99129C 87.46577 -51.07287 90.07048 -49.99396 92.78355 -49.99396L92.78355 -49.99396L92.78355 -49.99396L92.78355 -49.99396L505.7165 -49.99396C 508.4296 -49.99396 511.0342 -51.07287 512.9527 -52.99129C 514.8711 -54.90972 515.95 -57.51444 515.95 -60.2275L515.95 -60.2275L515.95 -60.2275L515.95 -60.2275L515.95 -101.1604C 515.95 -103.8735 514.8711 -106.4782 512.9527 -108.3966C 511.0342 -110.315 508.4296 -111.394 505.7165 -111.394L505.7165 -111.394L505.7165 -111.394L505.7165 -111.394L92.78355 -111.394C 90.07048 -111.394 87.46577 -110.315 85.54734 -108.3966C 83.62891 -106.4782 82.55 -103.8735 82.55 -101.1604z" stroke="#FF0000" stroke-width="0.75" fill="none" /><g clip-path="url(#2)"></g></g></g></svg>