<svg xmlns="http://www.w3.org/2000/svg" xmlns:xlink="http://www.w3.org/1999/xlink" id="body_10" preserveAspectRatio="xMinYMin meet" viewBox="0 0 793 1121"><defs><clipPath id="1"><path id="" clip-rule="evenodd" d="M0 841L0 -0.9000244L0 -0.9000244L595.3 -0.9000244L595.3 -0.9000244L595.3 841L595.3 841L0 841z" /></clipPath></defs><g transform="matrix(1.333333 0 0 1.333333 0 0)"><g clip-path="url(#1)"><g transform="matrix(0.3274944 0 0 0.327917 175.116 8.095093)"><g transform="matrix(1 0 0 1 0 0)"><image x="0" y="0" xlink:href="img_45.png" width="779" height="423" /></g></g><path id="2" transform="matrix(1 0 0 -1 0 841)" d="M174.991 833.03L430.3591 833.03L430.3591 833.03L430.3591 833.03L430.3591 833.03L430.3591 694.071L430.3591 694.071L430.3591 694.071L430.3591 694.071L174.991 694.071z" stroke="#7F7F7F" stroke-width="0.25" fill="none" /><g transform="matrix(0.3343956 0 0 0.334402 118.173 223.295)"><g transform="matrix(1 0 0 1 0 0)"><image x="0" y="0" xlink:href="img_46.png" width="1102" height="477" /></g></g><path id="60" transform="matrix(1 0 0 -1 0 841)" d="M118.048 617.83L486.8019 617.83L486.8019 617.83L486.8019 617.83L486.8019 617.83L486.8019 458.0702L486.8019 458.0702L486.8019 458.0702L486.8019 458.0702L118.048 458.0702z" stroke="#7F7F7F" stroke-width="0.25" fill="none" /><g transform="matrix(0.3861296 0 0 0.3860919 181.902 419.191)"><g transform="matrix(1 0 0 1 0 0)"><image x="0" y="0" xlink:href="img_47.png" width="624" height="387" /></g></g><path id="89" transform="matrix(1 0 0 -1 0 841)" d="M181.777 421.934L422.9719 421.934L422.9719 421.934L422.9719 421.934L422.9719 421.934L422.9719 272.2664L422.9719 272.2664L422.9719 272.2664L422.9719 272.2664L181.777 272.2664z" stroke="#7F7F7F" stroke-width="0.25" fill="none" /></g></g></svg>