<svg xmlns="http://www.w3.org/2000/svg" xmlns:xlink="http://www.w3.org/1999/xlink" id="body_15" preserveAspectRatio="xMinYMin meet" viewBox="0 0 793 1121"><defs><clipPath id="1"><path id="" clip-rule="evenodd" d="M0 841L0 -0.9000244L0 -0.9000244L595.3 -0.9000244L595.3 -0.9000244L595.3 841L595.3 841L0 841z" /></clipPath></defs><g transform="matrix(1.333333 0 0 1.333333 0 0)"><g clip-path="url(#1)"><g transform="matrix(0.4164222 0 0 0.4163609 103.925 79.63202)"><g transform="matrix(1 0 0 1 0 0)"><image x="0" y="0" xlink:href="img_72.png" width="953" height="485" /></g></g><g transform="matrix(0.4470798 0 0 0.4465184 162.414 321.634)"><g transform="matrix(1 0 0 1 0 0)"><image x="0" y="0" xlink:href="img_73.png" width="626" height="479" /></g></g><g transform="matrix(0.7661205 0 0 0.7658554 189.414 617.133)"><g transform="matrix(1 0 0 1 0 0)"><image x="0" y="0" xlink:href="img_74.png" width="296" height="226" /></g></g><path id="272" transform="matrix(1 0 0 -1 0 841)" d="M189.039 224.242L416.5606 224.242L416.5606 224.242L416.5606 224.242L416.5606 224.242L416.5606 50.40869L416.5606 50.40869L416.5606 50.40869L416.5606 50.40869L189.039 50.40869z" stroke="#7F7F7F" stroke-width="0.75" fill="none" /></g></g></svg>