<svg xmlns="http://www.w3.org/2000/svg" xmlns:xlink="http://www.w3.org/1999/xlink" id="body_11" preserveAspectRatio="xMinYMin meet" viewBox="0 0 793 1121"><defs><clipPath id="1"><path id="" clip-rule="evenodd" d="M0 841L0 -0.9000244L0 -0.9000244L595.3 -0.9000244L595.3 -0.9000244L595.3 841L595.3 841L0 841z" /></clipPath></defs><g transform="matrix(1.333333 0 0 1.333333 0 0)"><g clip-path="url(#1)"><g transform="matrix(0.3909856 0 0 0.3917238 217.635 5.99408)"><g transform="matrix(1 0 0 1 0 0)"><image x="0" y="0" xlink:href="img_49.png" width="435" height="482" /></g></g><g transform="matrix(0.3272682 0 0 0.3274164 118.923 281.431)"><g transform="matrix(1 0 0 1 0 0)"><image x="0" y="0" xlink:href="img_50.png" width="1126" height="160" /></g></g><path id="81" transform="matrix(1 0 0 -1 0 841)" d="M118.923 559.569L487.4269 559.569L487.4269 559.569L487.4269 559.569L487.4269 559.569L487.4269 507.1823L487.4269 507.1823L487.4269 507.1823L487.4269 507.1823L118.923 507.1823z" stroke="#7F7F7F" stroke-width="1" fill="none" /><g transform="matrix(0.3266879 0 0 0.3265464 118.173 390.238)"><g transform="matrix(1 0 0 1 0 0)"><image x="0" y="0" xlink:href="img_51.png" width="1128" height="144" /></g></g><path id="130" transform="matrix(1 0 0 -1 0 841)" d="M118.048 450.887L486.8019 450.887L486.8019 450.887L486.8019 450.887L486.8019 450.887L486.8019 403.6143L486.8019 403.6143L486.8019 403.6143L486.8019 403.6143L118.048 403.6143z" stroke="#7F7F7F" stroke-width="0.25" fill="none" /><g transform="matrix(0.5726557 0 0 0.5734686 132.421 510.377)"><g transform="matrix(1 0 0 1 0 0)"><image x="0" y="0" xlink:href="img_52.png" width="594" height="330" /></g></g><path id="237" transform="matrix(1 0 0 -1 0 841)" d="M132.421 330.623L472.5785 330.623L472.5785 330.623L472.5785 330.623L472.5785 330.623L472.5785 141.3784L472.5785 141.3784L472.5785 141.3784L472.5785 141.3784L132.421 141.3784z" stroke="#7F7F7F" stroke-width="1" fill="none" /><g transform="matrix(0.3238172 0 0 0.3237318 118.173 751.996)"><g transform="matrix(1 0 0 1 0 0)"><image x="0" y="0" xlink:href="img_53.png" width="1138" height="112" /></g></g><path id="288" transform="matrix(1 0 0 -1 0 841)" d="M118.048 89.12902L486.8019 89.12902L486.8019 89.12902L486.8019 89.12902L486.8019 89.12902L486.8019 52.62107L486.8019 52.62107L486.8019 52.62107L486.8019 52.62107L118.048 52.62107z" stroke="#7F7F7F" stroke-width="0.25" fill="none" /></g></g></svg>