<svg xmlns="http://www.w3.org/2000/svg" xmlns:xlink="http://www.w3.org/1999/xlink" id="body_1" preserveAspectRatio="xMinYMin meet" viewBox="0 0 793 1121"><defs><clipPath id="1"><path id="" clip-rule="evenodd" d="M0 841L0 -0.9000244L0 -0.9000244L595.3 -0.9000244L595.3 -0.9000244L595.3 841L595.3 841L0 841z" /></clipPath></defs><g transform="matrix(1.333333 0 0 1.333333 0 0)"><g clip-path="url(#1)"><g transform="matrix(0.3272862 0 0 0.3278524 147.685 176.7471)"><g transform="matrix(1 0 0 1 0 0)"><image x="0" y="0" xlink:href="img_01.png" width="910" height="477" /></g></g><path id="182" transform="matrix(1 0 0 -1 0 841)" d="M147.435 664.2529L147.435 507.8673" stroke="#FFD900" stroke-width="0.5" fill="none" stroke-opacity="0.1372549" /><path id="183" transform="matrix(1 0 0 -1 0 841)" d="M445.7654 664.2529L445.7654 507.8673" stroke="#FFD900" stroke-width="0.5" fill="none" stroke-opacity="0.1372549" /><path id="184" transform="matrix(1 0 0 -1 0 841)" d="M147.185 664.5029L446.0154 664.5029" stroke="#FFD900" stroke-width="0.5" fill="none" stroke-opacity="0.1372549" /><path id="185" transform="matrix(1 0 0 -1 0 841)" d="M147.185 507.6173L446.0154 507.6173" stroke="#FFD900" stroke-width="0.5" fill="none" stroke-opacity="0.1372549" /><g transform="matrix(0.3275535 0 0 0.3278066 147.727 378.694)"><g transform="matrix(1 0 0 1 0 0)"><image x="0" y="0" xlink:href="img_02.png" width="909" height="606" /></g></g><path id="229" transform="matrix(1 0 0 -1 0 841)" d="M147.477 462.306L147.477 263.6552" stroke="#FFD900" stroke-width="0.5" fill="none" stroke-opacity="0.1372549" /><path id="230" transform="matrix(1 0 0 -1 0 841)" d="M445.7231 462.306L445.7231 263.6552" stroke="#FFD900" stroke-width="0.5" fill="none" stroke-opacity="0.1372549" /><path id="231" transform="matrix(1 0 0 -1 0 841)" d="M147.227 462.556L445.9731 462.556" stroke="#FFD900" stroke-width="0.5" fill="none" stroke-opacity="0.1372549" /><path id="232" transform="matrix(1 0 0 -1 0 841)" d="M147.227 263.4052L445.9731 263.4052" stroke="#FFD900" stroke-width="0.5" fill="none" stroke-opacity="0.1372549" /><g transform="matrix(0.3275975 0 0 0.3276242 148.034 636.907)"><g transform="matrix(1 0 0 1 0 0)"><image x="0" y="0" xlink:href="img_03.png" width="907" height="549" /></g></g><path id="340" transform="matrix(1 0 0 -1 0 841)" d="M147.784 204.093L147.784 24.22729" stroke="#FFD900" stroke-width="0.5" fill="none" stroke-opacity="0.1372549" /><path id="341" transform="matrix(1 0 0 -1 0 841)" d="M445.4149 204.093L445.4149 24.22729" stroke="#FFD900" stroke-width="0.5" fill="none" stroke-opacity="0.1372549" /><path id="342" transform="matrix(1 0 0 -1 0 841)" d="M147.534 204.343L445.6649 204.343" stroke="#FFD900" stroke-width="0.5" fill="none" stroke-opacity="0.1372549" /><path id="343" transform="matrix(1 0 0 -1 0 841)" d="M147.534 23.97729L445.6649 23.97729" stroke="#FFD900" stroke-width="0.5" fill="none" stroke-opacity="0.1372549" /></g></g></svg>