<svg xmlns="http://www.w3.org/2000/svg" xmlns:xlink="http://www.w3.org/1999/xlink" id="body_2" preserveAspectRatio="xMinYMin meet" viewBox="0 0 793 1121"><defs><clipPath id="1"><path id="" clip-rule="evenodd" d="M0 841L0 -0.9000244L0 -0.9000244L595.3 -0.9000244L595.3 -0.9000244L595.3 841L595.3 841L0 841z" /></clipPath></defs><g transform="matrix(1.333333 0 0 1.333333 0 0)"><g clip-path="url(#1)"><g transform="matrix(0.3276104 0 0 0.3276553 147.487 107.484)"><g transform="matrix(1 0 0 1 0 0)"><image x="0" y="0" xlink:href="img_05.png" width="910" height="443" /></g></g><path id="122" transform="matrix(1 0 0 -1 0 841)" d="M147.237 733.516L147.237 588.3647" stroke="#FFD900" stroke-width="0.5" fill="none" stroke-opacity="0.1372549" /><path id="123" transform="matrix(1 0 0 -1 0 841)" d="M445.8624 733.516L445.8624 588.3647" stroke="#FFD900" stroke-width="0.5" fill="none" stroke-opacity="0.1372549" /><path id="124" transform="matrix(1 0 0 -1 0 841)" d="M146.987 733.766L446.1124 733.766" stroke="#FFD900" stroke-width="0.5" fill="none" stroke-opacity="0.1372549" /><path id="125" transform="matrix(1 0 0 -1 0 841)" d="M146.987 588.1147L446.1124 588.1147" stroke="#FFD900" stroke-width="0.5" fill="none" stroke-opacity="0.1372549" /><g transform="matrix(0.3486753 0 0 0.3497745 147.715 300.621)"><g transform="matrix(1 0 0 1 0 0)"><image x="0" y="0" xlink:href="img_06.png" width="854" height="497" /></g></g><path id="170" transform="matrix(1 0 0 -1 0 841)" d="M147.465 540.379L147.465 366.541" stroke="#FFD900" stroke-width="0.5" fill="none" stroke-opacity="0.1372549" /><path id="171" transform="matrix(1 0 0 -1 0 841)" d="M445.7337 540.379L445.7337 366.541" stroke="#FFD900" stroke-width="0.5" fill="none" stroke-opacity="0.1372549" /><path id="172" transform="matrix(1 0 0 -1 0 841)" d="M147.215 540.629L445.9837 540.629" stroke="#FFD900" stroke-width="0.5" fill="none" stroke-opacity="0.1372549" /><path id="173" transform="matrix(1 0 0 -1 0 841)" d="M147.215 366.291L445.9837 366.291" stroke="#FFD900" stroke-width="0.5" fill="none" stroke-opacity="0.1372549" /><g transform="matrix(0.3275765 0 0 0.3280777 147.941 539.5439)"><g transform="matrix(1 0 0 1 0 0)"><image x="0" y="0" xlink:href="img_07.png" width="907" height="400" /></g></g><path id="266" transform="matrix(1 0 0 -1 0 841)" d="M147.691 301.456L147.691 170.2249" stroke="#FFD900" stroke-width="0.5" fill="none" stroke-opacity="0.1372549" /><path id="267" transform="matrix(1 0 0 -1 0 841)" d="M445.3029 301.456L445.3029 170.2249" stroke="#FFD900" stroke-width="0.5" fill="none" stroke-opacity="0.1372549" /><path id="268" transform="matrix(1 0 0 -1 0 841)" d="M147.441 301.706L445.5529 301.706" stroke="#FFD900" stroke-width="0.5" fill="none" stroke-opacity="0.1372549" /><path id="269" transform="matrix(1 0 0 -1 0 841)" d="M147.441 169.9749L445.5529 169.9749" stroke="#FFD900" stroke-width="0.5" fill="none" stroke-opacity="0.1372549" /></g></g></svg>