<svg xmlns="http://www.w3.org/2000/svg" xmlns:xlink="http://www.w3.org/1999/xlink" id="body_3" preserveAspectRatio="xMinYMin meet" viewBox="0 0 793 1121"><defs><clipPath id="1"><path id="" clip-rule="evenodd" d="M0 841L0 -0.9000244L0 -0.9000244L595.3 -0.9000244L595.3 -0.9000244L595.3 841L595.3 841L0 841z" /></clipPath></defs><g transform="matrix(1.333333 0 0 1.333333 0 0)"><g clip-path="url(#1)"><g transform="matrix(0.3273388 0 0 0.3275284 147.722 20.12103)"><g transform="matrix(1 0 0 1 0 0)"><image x="0" y="0" xlink:href="img_09.png" width="909" height="648" /></g></g><path id="25" transform="matrix(1 0 0 -1 0 841)" d="M147.472 820.879L147.472 608.6406" stroke="#FFD900" stroke-width="0.5" fill="none" stroke-opacity="0.1372549" /><path id="26" transform="matrix(1 0 0 -1 0 841)" d="M445.523 820.879L445.523 608.6406" stroke="#FFD900" stroke-width="0.5" fill="none" stroke-opacity="0.1372549" /><path id="27" transform="matrix(1 0 0 -1 0 841)" d="M147.222 821.129L445.773 821.129" stroke="#FFD900" stroke-width="0.5" fill="none" stroke-opacity="0.1372549" /><path id="28" transform="matrix(1 0 0 -1 0 841)" d="M147.222 608.3906L445.773 608.3906" stroke="#FFD900" stroke-width="0.5" fill="none" stroke-opacity="0.1372549" /><g transform="matrix(0.3854667 0 0 0.3852654 147.757 275.156)"><g transform="matrix(1 0 0 1 0 0)"><image x="0" y="0" xlink:href="img_10.png" width="772" height="385" /></g></g><path id="82" transform="matrix(1 0 0 -1 0 841)" d="M147.507 565.844L147.507 417.5168" stroke="#FFD900" stroke-width="0.5" fill="none" stroke-opacity="0.1372549" /><path id="83" transform="matrix(1 0 0 -1 0 841)" d="M445.5873 565.844L445.5873 417.5168" stroke="#FFD900" stroke-width="0.5" fill="none" stroke-opacity="0.1372549" /><path id="84" transform="matrix(1 0 0 -1 0 841)" d="M147.257 566.094L445.8373 566.094" stroke="#FFD900" stroke-width="0.5" fill="none" stroke-opacity="0.1372549" /><path id="85" transform="matrix(1 0 0 -1 0 841)" d="M147.257 417.2668L445.8373 417.2668" stroke="#FFD900" stroke-width="0.5" fill="none" stroke-opacity="0.1372549" /><g transform="matrix(0.4845 0 0 0.4845 241.507 452.427)"><g transform="matrix(1 0 0 1 0 0)"><image x="0" y="0" xlink:href="img_11.png" width="227" height="228" /></g></g><g transform="matrix(0.4012081 0 0 0.4019517 168.614 593.458)"><g transform="matrix(1 0 0 1 0 0)"><image x="0" y="0" xlink:href="img_12.png" width="638" height="555" /></g></g><path id="162" transform="matrix(1 0 0 -1 0 841)" d="M168.364 247.542L168.364 24.4588" stroke="#FFD900" stroke-width="0.5" fill="none" stroke-opacity="0.1372549" /><path id="163" transform="matrix(1 0 0 -1 0 841)" d="M424.8347 247.542L424.8347 24.4588" stroke="#FFD900" stroke-width="0.5" fill="none" stroke-opacity="0.1372549" /><path id="164" transform="matrix(1 0 0 -1 0 841)" d="M168.114 247.792L425.0847 247.792" stroke="#FFD900" stroke-width="0.5" fill="none" stroke-opacity="0.1372549" /><path id="165" transform="matrix(1 0 0 -1 0 841)" d="M168.114 24.2088L425.0847 24.2088" stroke="#FFD900" stroke-width="0.5" fill="none" stroke-opacity="0.1372549" /></g></g></svg>