<svg xmlns="http://www.w3.org/2000/svg" xmlns:xlink="http://www.w3.org/1999/xlink" id="body_2" preserveAspectRatio="xMinYMin meet" viewBox="0 0 793 1121"><defs><clipPath id="1"><path id="" clip-rule="evenodd" d="M0 841L0 -0.9000244L0 -0.9000244L595.3 -0.9000244L595.3 -0.9000244L595.3 841L595.3 841L0 841z" /></clipPath><clipPath id="2"><path id="" clip-rule="evenodd" d="M123.8085 172.4215L322.1815 172.4215L322.1815 172.4215L322.1815 289.9646L322.1815 289.9646L123.8085 289.9646z" /></clipPath></defs><g transform="matrix(1.333333 0 0 1.333333 0 0)"><g clip-path="url(#1)"><g transform="matrix(0.4007854 0 0 0.3998131 143.119 18.98206)"><g transform="matrix(1 0 0 1 0 0)"><image x="0" y="0" xlink:href="img_06.png" width="778" height="345" /></g></g><g transform="matrix(0.8208488 0 0 0.820848 335.223 165.4961)"><g transform="matrix(1 0 0 1 0 0)"><image x="0" y="0" xlink:href="img_07.png" width="168" height="161" /></g></g><path id="45" transform="matrix(1 0 0 -1 0 841)" d="M335.223 675.504L473.1256 675.504L473.1256 675.504L473.1256 675.504L473.1256 675.504L473.1256 543.3474L473.1256 543.3474L473.1256 543.3474L473.1256 543.3474L335.223 543.3474z" stroke="#7F7F7F" stroke-width="1" fill="none" /><g transform="matrix(0.3543307 0 0 0.3543188 185.739 438.482)"><g transform="matrix(1 0 0 1 0 0)"><image x="0" y="0" xlink:href="img_08.png" width="640" height="448" /></g></g><g transform="matrix(0.3272318 0 0 0.3272884 185.739 637.682)"><g transform="matrix(1 0 0 1 0 0)"><image x="0" y="0" xlink:href="img_09.png" width="693" height="485" /></g></g><path id="224" transform="matrix(1 0 0 -1 0 841)" d="M116.609 656.1709C 116.609 662.3234 119.0557 668.2303 123.4062 672.5808C 127.7567 676.9313 133.6635 679.378 139.8161 679.378L139.8161 679.378L139.8161 679.378L139.8161 679.378L306.2715 679.378C 312.4241 679.378 318.3309 676.9313 322.6814 672.5808C 327.0319 668.2303 329.4786 662.3234 329.4786 656.1709L329.4786 656.1709L329.4786 656.1709L329.4786 656.1709L329.4786 563.3454C 329.4786 557.1929 327.0319 551.286 322.6814 546.9355C 318.3309 542.585 312.4241 540.1383 306.2715 540.1383L306.2715 540.1383L306.2715 540.1383L306.2715 540.1383L139.8161 540.1383C 133.6635 540.1383 127.7567 542.585 123.4062 546.9355C 119.0557 551.286 116.609 557.1929 116.609 563.3454z" stroke="#FF0000" stroke-width="1" fill="none" /><g clip-path="url(#2)"></g></g></g></svg>