<svg xmlns="http://www.w3.org/2000/svg" xmlns:xlink="http://www.w3.org/1999/xlink" id="body_3" preserveAspectRatio="xMinYMin meet" viewBox="0 0 793 1121"><defs><clipPath id="1"><path id="" clip-rule="evenodd" d="M0 841L0 -0.9000244L0 -0.9000244L595.3 -0.9000244L595.3 -0.9000244L595.3 841L595.3 841L0 841z" /></clipPath><clipPath id="2"><path id="" clip-rule="evenodd" d="M89.45612 713.9501L222.5582 713.9501L222.5582 713.9501L222.5582 806.5522L222.5582 806.5522L89.45612 806.5522z" /></clipPath></defs><g transform="matrix(1.333333 0 0 1.333333 0 0)"><g clip-path="url(#1)"><g transform="matrix(0.3277047 0 0 0.3270014 185.739 1.351013)"><g transform="matrix(1 0 0 1 0 0)"><image x="0" y="0" xlink:href="img_11.png" width="692" height="511" /></g></g><g transform="matrix(0.488732 0 0 0.4887322 185.864 267.696)"><g transform="matrix(1 0 0 1 0 0)"><image x="0" y="0" xlink:href="img_12.png" width="464" height="239" /></g></g><path id="141" transform="matrix(1 0 0 -1 0 841)" d="M185.864 573.304L412.6357 573.304L412.6357 573.304L412.6357 573.304L412.6357 573.304L412.6357 456.4969L412.6357 456.4969L412.6357 456.4969L412.6357 456.4969L185.864 456.4969z" stroke="#7F7F7F" stroke-width="1" fill="none" /><g transform="matrix(0.5118999 0 0 0.5118997 185.739 470.484)"><g transform="matrix(1 0 0 1 0 0)"><image x="0" y="0" xlink:href="static/第1章  使用前的准备工作_files/img_13.png" width="443" height="238" /></g></g><g transform="matrix(0.3227554 0 0 0.3229345 236.49 701.5809)"><g transform="matrix(1 0 0 1 0 0)"><image x="0" y="0" xlink:href="./第1章  使用前的准备工作_files/img_14.png" width="860" height="381" /></g></g><path id="341" transform="matrix(1 0 0 -1 0 841)" d="M236.49 139.419L514.0596 139.419L514.0596 139.419L514.0596 139.419L514.0596 139.419L514.0596 16.381L514.0596 16.381L514.0596 16.381L514.0596 16.381L236.49 16.381z" stroke="#7F7F7F" stroke-width="1" fill="none" /><path id="342" transform="matrix(1 0 0 -1 0 841)" d="M83.606 117.9C 83.606 122.8311 85.56698 127.5653 89.05382 131.0522C 92.54066 134.539 97.27487 136.5 102.206 136.5L102.206 136.5L102.206 136.5L102.206 136.5L209.906 136.5C 214.8371 136.5 219.5714 134.539 223.0582 131.0522C 226.545 127.5653 228.506 122.8311 228.506 117.9L228.506 117.9L228.506 117.9L228.506 117.9L228.506 43.5C 228.506 38.56886 226.545 33.83466 223.0582 30.34782C 219.5714 26.86097 214.8371 24.9 209.906 24.9L209.906 24.9L209.906 24.9L209.906 24.9L102.206 24.9C 97.27487 24.9 92.54066 26.86097 89.05382 30.34782C 85.56698 33.83466 83.606 38.56886 83.606 43.5z" stroke="#FF0000" stroke-width="1" fill="none" /><g clip-path="url(#2)"></g></g></g></svg>