<svg xmlns="http://www.w3.org/2000/svg" xmlns:xlink="http://www.w3.org/1999/xlink" id="body_1" preserveAspectRatio="xMinYMin meet" viewBox="0 0 793 1121"><defs><clipPath id="1"><path id="" clip-rule="evenodd" d="M0 841L0 -0.9000244L0 -0.9000244L595.3 -0.9000244L595.3 -0.9000244L595.3 841L595.3 841L0 841z" /></clipPath><clipPath id="2"><path id="" clip-rule="evenodd" d="M170.6552 323.2042L259.2726 323.2042L259.2726 323.2042L259.2726 401.0923L259.2726 401.0923L170.6552 401.0923z" /></clipPath></defs><g transform="matrix(1.333333 0 0 1.333333 0 0)"><g clip-path="url(#1)"><g transform="matrix(0.3432428 0 0 0.3432429 173.108 148.782)"><g transform="matrix(1 0 0 1 0 0)"><image x="0" y="0" xlink:href="img_01.png" width="735" height="298" /></g></g><path id="151" transform="matrix(1 0 0 -1 0 841)" d="M173.108 692.218L425.3914 692.218L425.3914 692.218L425.3914 692.218L425.3914 692.218L425.3914 589.9316L425.3914 589.9316L425.3914 589.9316L425.3914 589.9316L173.108 589.9316z" stroke="#7F7F7F" stroke-width="1" fill="none" /><g transform="matrix(0.3277981 0 0 0.3267578 275.539 300.882)"><g transform="matrix(1 0 0 1 0 0)"><image x="0" y="0" xlink:href="img_02.png" width="481" height="504" /></g></g><path id="216" transform="matrix(1 0 0 -1 0 841)" d="M275.539 540.118L433.2099 540.118L433.2099 540.118L433.2099 540.118L433.2099 540.118L433.2099 375.4321L433.2099 375.4321L433.2099 375.4321L433.2099 375.4321L275.539 375.4321z" stroke="#7F7F7F" stroke-width="1" fill="none" /><g transform="matrix(0.3400338 0 0 0.3399792 143.119 514.925)"><g transform="matrix(1 0 0 1 0 0)"><image x="0" y="0" xlink:href="img_03.png" width="917" height="489" /></g></g><path id="296" transform="matrix(1 0 0 -1 0 841)" d="M142.744 326.45L455.305 326.45L455.305 326.45L455.305 326.45L455.305 326.45L455.305 159.4502L455.305 159.4502L455.305 159.4502L455.305 159.4502L142.744 159.4502z" stroke="#7F7F7F" stroke-width="0.75" fill="none" /><g transform="matrix(0.3238555 0 0 0.3241909 173.108 731.726)"><g transform="matrix(1 0 0 1 0 0)"><image x="0" y="0" xlink:href="img_04.png" width="779" height="312" /></g></g><path id="370" transform="matrix(1 0 0 -1 0 841)" d="M173.108 109.274L425.3914 109.274L425.3914 109.274L425.3914 109.274L425.3914 109.274L425.3914 8.126472L425.3914 8.126472L425.3914 8.126472L425.3914 8.126472L173.108 8.126472z" stroke="#7F7F7F" stroke-width="1" fill="none" /><path id="371" transform="matrix(1 0 0 -1 0 841)" d="M165.601 510.5673C 165.601 514.7781 167.2755 518.8206 170.2529 521.7981C 173.2304 524.7755 177.2729 526.45 181.4837 526.45L181.4837 526.45L181.4837 526.45L181.4837 526.45L248.5419 526.45C 252.7526 526.45 256.7952 524.7755 259.7726 521.7981C 262.7501 518.8206 264.4246 514.7781 264.4246 510.5673L264.4246 510.5673L264.4246 510.5673L264.4246 510.5673L264.4246 447.0385C 264.4246 442.8278 262.7501 438.7852 259.7726 435.8078C 256.7952 432.8303 252.7526 431.1558 248.5419 431.1558L248.5419 431.1558L248.5419 431.1558L248.5419 431.1558L181.4837 431.1558C 177.2729 431.1558 173.2304 432.8303 170.2529 435.8078C 167.2755 438.7852 165.601 442.8278 165.601 447.0385z" stroke="#FF0000" stroke-width="1" fill="none" /><g clip-path="url(#2)"></g></g></g></svg>